<?xml version="1.0" encoding="utf-8"?>
<!-- Generator: Adobe Illustrator 16.0.0, SVG Export Plug-In . SVG Version: 6.00 Build 0)  -->
<!DOCTYPE svg PUBLIC "-//W3C//DTD SVG 1.1//EN" "http://www.w3.org/Graphics/SVG/1.1/DTD/svg11.dtd">
<svg version="1.1" id="Layer_1" xmlns="http://www.w3.org/2000/svg" xmlns:xlink="http://www.w3.org/1999/xlink" x="0px" y="0px"
	 width="17.55px" height="212.628px" viewBox="0 0 17.55 212.628" enable-background="new 0 0 17.55 212.628" xml:space="preserve">
<g>
	<path fill="#35F706" d="M0.04,206.014l0.012-2.211l15.285,0.089c0.672,0.004,1.049,0.254,1.045,0.891s-0.383,0.883-1.055,0.879
		l-12.388-0.072v0.035l2.95,1.697l0.336,0.002c0.651,0.004,1.259,0.219,1.255,0.891c-0.004,0.637-0.614,0.881-1.265,0.877
		l-0.336-0.002l-2.971,1.664v0.035l12.388,0.072c0.672,0.004,1.048,0.253,1.044,0.89c-0.003,0.637-0.383,0.882-1.055,0.878
		L0.001,212.54l0.014-2.21l3.707-2.137L0.04,206.014z"/>
	<path fill="#35F706" d="M14.342,194.632l0.015-2.6c0.003-0.461,0.299-0.883,1.055-0.879c0.756,0.005,1.048,0.431,1.045,0.891
		l-0.041,6.968c-0.002,0.46-0.299,0.883-1.055,0.878c-0.756-0.004-1.047-0.43-1.045-0.891l0.016-2.6l-12.135-0.07l-0.016,2.6
		c-0.003,0.46-0.299,0.883-1.055,0.879c-0.756-0.005-1.048-0.432-1.045-0.891l0.041-6.969c0.002-0.459,0.299-0.882,1.055-0.877
		c0.756,0.004,1.047,0.43,1.045,0.89l-0.016,2.6L14.342,194.632z"/>
	<path fill="#35F706" d="M1.261,180.084c-0.672-0.004-1.048-0.253-1.044-0.89s0.384-0.883,1.056-0.879l15.285,0.09l-0.014,2.334
		l-12.625,4.542H3.897v0.035l11.548,0.067c0.672,0.004,1.048,0.254,1.045,0.891c-0.004,0.637-0.384,0.882-1.056,0.878l-15.285-0.089
		l0.014-2.335l12.771-4.541v0.019v-0.036L1.261,180.084z"/>
	<path fill="#35F706" d="M14.49,169.156l0.015-2.6c0.003-0.46,0.299-0.883,1.055-0.878s1.048,0.431,1.045,0.89l-0.04,6.969
		c-0.003,0.459-0.3,0.883-1.056,0.878s-1.047-0.431-1.044-0.891l0.015-2.6l-12.135-0.071l-0.016,2.6
		c-0.003,0.461-0.299,0.883-1.055,0.879s-1.048-0.431-1.045-0.891l0.041-6.968c0.002-0.46,0.299-0.882,1.055-0.878
		s1.047,0.43,1.045,0.891l-0.016,2.6L14.49,169.156z"/>
	<path fill="#35F706" d="M1.41,154.608c-0.672-0.004-1.048-0.253-1.045-0.89c0.004-0.637,0.384-0.883,1.056-0.879l15.285,0.09
		l-0.014,2.334l-12.625,4.542H4.046v0.035l11.548,0.067c0.672,0.004,1.048,0.254,1.045,0.891c-0.004,0.637-0.384,0.882-1.056,0.878
		l-15.285-0.089l0.014-2.335l12.771-4.541v0.019v-0.036L1.41,154.608z"/>
	<path fill="#35F706" d="M11.405,143.661c-0.002,0.46-0.299,0.882-1.055,0.878s-1.047-0.43-1.045-0.891l0.021-3.482l4.136,0.023
		c2.037,0.012,3.29,1.168,3.28,2.848l-0.018,3.043c-0.005,0.813-0.177,1.413-0.853,2.028c-0.76,0.703-1.537,0.822-2.587,0.816
		l-5.249-0.03c-1.344-0.008-2.035-0.26-3.061-0.938l-3.158-2.105c-1.066-0.714-1.42-1.335-1.412-2.484l0.014-2.37
		c0.002-0.46,0.299-0.882,1.055-0.878c0.756,0.005,1.047,0.43,1.045,0.891l-0.013,2.121c-0.006,0.973-0.026,0.902,0.853,1.492
		l2.906,1.944c0.816,0.552,1.697,0.558,2.727,0.563l4.115,0.023c1.154,0.008,1.514-0.203,1.52-1.211l0.016-2.812
		c0.004-0.637-0.161-1.169-1.085-1.174l-2.142-0.013L11.405,143.661z"/>
	<path fill="#35F706" d="M14.802,115.604c0.004-0.46,0.3-0.882,1.056-0.878s1.048,0.43,1.044,0.891l-0.045,7.852l-16.336-0.096
		l0.047-7.852c0.002-0.46,0.299-0.883,1.055-0.878s1.047,0.431,1.045,0.89l-0.035,6.084l5.018,0.029l0.016-2.6
		c0.002-0.46,0.299-0.883,1.055-0.879c0.756,0.005,1.047,0.432,1.045,0.891l-0.016,2.6l5.018,0.029L14.802,115.604z"/>
	<path fill="#35F706" d="M0.596,110.634l0.046-7.852c0.002-0.46,0.299-0.883,1.055-0.878s1.047,0.431,1.045,0.89l-0.035,6.084
		l3.232,0.02l0.025-4.351c0.003-0.46,0.299-0.882,1.055-0.878s1.048,0.43,1.045,0.891l-0.025,4.35l7.854,0.046
		c0.672,0.004,1.048,0.253,1.044,0.89c-0.003,0.637-0.383,0.883-1.055,0.879L0.596,110.634z"/>
	<path fill="#35F706" d="M0.67,97.896l0.046-7.851c0.002-0.46,0.299-0.882,1.055-0.878s1.047,0.43,1.045,0.89L2.78,96.14l3.232,0.02
		l0.025-4.351c0.003-0.459,0.299-0.882,1.055-0.877s1.048,0.43,1.045,0.89l-0.025,4.35l7.854,0.046
		c0.672,0.004,1.048,0.253,1.044,0.89c-0.003,0.637-0.383,0.883-1.055,0.879L0.67,97.896z"/>
	<path fill="#35F706" d="M15.01,79.989l0.016-2.6c0.003-0.46,0.299-0.882,1.055-0.878s1.048,0.43,1.045,0.89l-0.041,6.968
		c-0.003,0.46-0.299,0.883-1.055,0.878s-1.048-0.431-1.045-0.891l0.015-2.6L2.864,81.687l-0.016,2.6
		c-0.002,0.46-0.299,0.883-1.055,0.878s-1.047-0.431-1.045-0.891l0.041-6.968c0.002-0.46,0.299-0.882,1.055-0.878
		s1.047,0.43,1.045,0.89l-0.016,2.6L15.01,79.989z"/>
	<path fill="#35F706" d="M17.181,67.758c-0.008,1.327-0.642,2.083-2.01,2.642l-3.914,1.604c-0.717,0.296-1.389,0.469-2.208,0.465
		c-0.924-0.005-1.489-0.15-2.327-0.509l-3.875-1.65c-1.445-0.609-2.008-1.374-2-2.735l0.018-3.006
		c0.002-0.389,0.257-0.883,1.055-0.878c0.756,0.004,1.047,0.483,1.045,0.89l-0.018,2.953c-0.004,0.76,0.079,0.885,0.875,1.226
		l3.645,1.56c0.565,0.233,0.942,0.376,1.594,0.38c0.588,0.003,0.945-0.154,1.45-0.363l3.642-1.482
		c0.863-0.348,0.927-0.525,0.932-1.321l0.017-2.882c0.002-0.389,0.257-0.883,1.055-0.878c0.756,0.004,1.047,0.483,1.045,0.89
		L17.181,67.758z"/>
	<path fill="#35F706" d="M15.159,54.513l0.015-2.6c0.003-0.46,0.299-0.882,1.055-0.878s1.048,0.43,1.045,0.89l-0.04,6.968
		c-0.004,0.46-0.3,0.883-1.056,0.878s-1.048-0.431-1.044-0.891l0.015-2.6L3.013,56.211l-0.016,2.6
		c-0.002,0.46-0.299,0.883-1.055,0.878s-1.047-0.431-1.045-0.891l0.041-6.968c0.002-0.46,0.299-0.882,1.055-0.878
		s1.047,0.43,1.045,0.89l-0.016,2.6L15.159,54.513z"/>
	<path fill="#35F706" d="M15.248,39.175c0.003-0.46,0.299-0.882,1.055-0.878s1.048,0.43,1.045,0.89l-0.046,7.852L0.967,46.944
		l0.046-7.852c0.002-0.46,0.299-0.882,1.055-0.878s1.047,0.43,1.045,0.89l-0.035,6.083l5.018,0.029l0.016-2.599
		c0.002-0.459,0.299-0.882,1.055-0.878s1.047,0.431,1.045,0.89l-0.016,2.599l5.018,0.029L15.248,39.175z"/>
	<path fill="#35F706" d="M2.153,27.227c-0.672-0.004-1.049-0.253-1.045-0.89s0.383-0.882,1.055-0.878l15.285,0.089l-0.014,2.334
		L4.81,32.424H4.789l-0.001,0.035l11.549,0.067c0.672,0.004,1.048,0.253,1.045,0.89c-0.004,0.637-0.384,0.882-1.056,0.878
		L1.041,34.206l0.014-2.334l12.771-4.541v0.018v-0.036L2.153,27.227z"/>
	<path fill="#35F706" d="M17.478,16.806c-0.008,1.327-0.642,2.083-2.01,2.641l-3.914,1.604c-0.717,0.296-1.389,0.469-2.208,0.465
		c-0.924-0.005-1.489-0.15-2.327-0.509l-3.875-1.65c-1.445-0.609-2.008-1.373-2-2.735l0.018-3.006
		c0.002-0.389,0.258-0.883,1.055-0.878c0.756,0.004,1.047,0.483,1.045,0.89l-0.018,2.954c-0.004,0.76,0.079,0.885,0.875,1.226
		l3.645,1.56c0.565,0.233,0.942,0.376,1.594,0.38c0.588,0.003,0.945-0.154,1.451-0.363l3.641-1.482
		c0.863-0.348,0.927-0.525,0.932-1.321l0.017-2.883c0.003-0.389,0.257-0.883,1.056-0.878c0.756,0.004,1.047,0.483,1.044,0.89
		L17.478,16.806z"/>
	<path fill="#35F706" d="M16.505,3.567c0.672,0.004,1.049,0.253,1.045,0.89s-0.383,0.882-1.055,0.878L9.776,5.296L4.381,8.749
		L2.239,8.736C1.567,8.732,1.19,8.482,1.194,7.846s0.383-0.882,1.055-0.878l1.428,0.008L7.702,4.4L3.708,1.777L2.28,1.769
		C1.608,1.765,1.231,1.515,1.235,0.878S1.618-0.004,2.29,0l2.143,0.012l5.354,3.516L16.505,3.567z"/>
</g>
</svg>
