<?xml version="1.0" encoding="utf-8"?>
<!-- Generator: Adobe Illustrator 16.0.0, SVG Export Plug-In . SVG Version: 6.00 Build 0)  -->
<!DOCTYPE svg PUBLIC "-//W3C//DTD SVG 1.1//EN" "http://www.w3.org/Graphics/SVG/1.1/DTD/svg11.dtd">
<svg version="1.1" id="Layer_1" xmlns="http://www.w3.org/2000/svg" xmlns:xlink="http://www.w3.org/1999/xlink" x="0px" y="0px"
	 width="52.331px" height="302.71px" viewBox="-2 -2 52.331 302.71" enable-background="new -2 -2 52.331 302.71"
	 xml:space="preserve">
<g>
	<path fill="#66F711" d="M2.001,169.479h-4V24.166C-1.999,9.738,9.738-2,24.166-2C38.593-2,50.332,9.738,50.332,24.166v123.181h-4
		V24.166C46.332,11.944,36.388,2,24.166,2C11.944,2,2.001,11.944,2.001,24.166V169.479z"/>
	<rect x="-1.999" y="165.479" fill="#66F711" width="4" height="135.232"/>
	<rect x="-1.999" y="296.711" fill="#66F711" width="52.331" height="4"/>
	<rect x="46.332" y="165.479" fill="#66F711" width="4" height="135.232"/>
	<rect x="46.332" y="143.347" fill="#66F711" width="4" height="26.132"/>
</g>
<line fill="none" stroke="#66F711" stroke-width="2" stroke-linecap="square" stroke-miterlimit="10" x1="0.001" y1="111.43" x2="17.293" y2="111.43"/>
<line fill="none" stroke="#66F711" stroke-width="2" stroke-linecap="square" stroke-miterlimit="10" x1="0.001" y1="138.951" x2="17.293" y2="138.951"/>
<line fill="none" stroke="#66F711" stroke-width="2" stroke-linecap="square" stroke-miterlimit="10" x1="0.001" y1="165.465" x2="17.293" y2="165.465"/>
<line fill="none" stroke="#66F711" stroke-width="2" stroke-linecap="square" stroke-miterlimit="10" x1="0.001" y1="191.98" x2="17.293" y2="191.98"/>
<line fill="none" stroke="#66F711" stroke-width="2" stroke-linecap="square" stroke-miterlimit="10" x1="0.001" y1="219.502" x2="17.293" y2="219.502"/>
<line fill="none" stroke="#66F711" stroke-width="2" stroke-linecap="square" stroke-miterlimit="10" x1="0.001" y1="247.023" x2="17.293" y2="247.023"/>
<line fill="none" stroke="#66F711" stroke-width="2" stroke-linecap="square" stroke-miterlimit="10" x1="0.001" y1="273.875" x2="17.293" y2="273.875"/>
<line fill="none" stroke="#66F711" stroke-width="2" stroke-linecap="square" stroke-miterlimit="10" x1="0.001" y1="124.703" x2="17.293" y2="124.703"/>
<line fill="none" stroke="#66F711" stroke-width="2" stroke-linecap="square" stroke-miterlimit="10" x1="0.001" y1="152.823" x2="17.293" y2="152.823"/>
<line fill="none" stroke="#66F711" stroke-width="2" stroke-linecap="square" stroke-miterlimit="10" x1="0.001" y1="178.779" x2="17.293" y2="178.779"/>
<line fill="none" stroke="#66F711" stroke-width="2" stroke-linecap="square" stroke-miterlimit="10" x1="0.001" y1="205.405" x2="17.293" y2="205.405"/>
<line fill="none" stroke="#66F711" stroke-width="2" stroke-linecap="square" stroke-miterlimit="10" x1="0.001" y1="233.096" x2="17.293" y2="233.096"/>
<line fill="none" stroke="#66F711" stroke-width="2" stroke-linecap="square" stroke-miterlimit="10" x1="0.001" y1="262.016" x2="17.293" y2="262.016"/>
<line fill="none" stroke="#66F711" stroke-width="2" stroke-linecap="square" stroke-miterlimit="10" x1="0.001" y1="286.181" x2="17.293" y2="286.181"/>
<line fill="none" stroke="#66F711" stroke-width="2" stroke-linecap="square" stroke-miterlimit="10" x1="0.001" y1="30.493" x2="17.293" y2="30.493"/>
<line fill="none" stroke="#66F711" stroke-width="2" stroke-linecap="square" stroke-miterlimit="10" x1="0.001" y1="58.015" x2="17.293" y2="58.015"/>
<line fill="none" stroke="#66F711" stroke-width="2" stroke-linecap="square" stroke-miterlimit="10" x1="0.001" y1="84.529" x2="17.293" y2="84.529"/>
<line fill="none" stroke="#66F711" stroke-width="2" stroke-linecap="square" stroke-miterlimit="10" x1="0.001" y1="43.766" x2="17.293" y2="43.766"/>
<line fill="none" stroke="#66F711" stroke-width="2" stroke-linecap="square" stroke-miterlimit="10" x1="0.001" y1="71.886" x2="17.293" y2="71.886"/>
<line fill="none" stroke="#66F711" stroke-width="2" stroke-linecap="square" stroke-miterlimit="10" x1="0.001" y1="97.842" x2="17.293" y2="97.842"/>
</svg>
