<?xml version="1.0" encoding="utf-8"?>
<!-- Generator: Adobe Illustrator 16.0.0, SVG Export Plug-In . SVG Version: 6.00 Build 0)  -->
<!DOCTYPE svg PUBLIC "-//W3C//DTD SVG 1.1//EN" "http://www.w3.org/Graphics/SVG/1.1/DTD/svg11.dtd">
<svg version="1.1" id="Layer_1" xmlns="http://www.w3.org/2000/svg" xmlns:xlink="http://www.w3.org/1999/xlink" x="0px" y="0px"
	 width="168.694px" height="302.711px" viewBox="-4.154 0 168.694 302.711" enable-background="new -4.154 0 168.694 302.711"
	 xml:space="preserve">
<rect x="89.156" y="138.522" opacity="0.5" fill="#231F20" width="30.771" height="164.188"/>
<rect x="-4.155" y="75.996" opacity="0.5" fill="#231F20" width="34.179" height="226.715"/>
<linearGradient id="SVGID_1_" gradientUnits="userSpaceOnUse" x1="56.1892" y1="3.0005" x2="56.1892" y2="171.4858" gradientTransform="matrix(1 0 0 -1 0 303.7109)">
	<stop  offset="0" style="stop-color:#FFFF00"/>
	<stop  offset="1" style="stop-color:#00FFFF"/>
</linearGradient>
<rect x="32.024" y="132.225" fill="url(#SVGID_1_)" width="48.331" height="168.486"/>
<g>
	<path fill="#35F706" d="M34.024,171.479h-4V26.165C30.024,11.738,41.762,0,56.189,0c14.428,0,26.166,11.738,26.166,26.165v123.182
		h-4V26.165C78.355,13.943,68.411,4,56.189,4s-22.165,9.943-22.165,22.165V171.479z"/>
	<rect x="30.024" y="167.479" fill="#35F706" width="4" height="135.232"/>
	<rect x="30.024" y="298.711" fill="#35F706" width="52.331" height="4"/>
	<rect x="78.355" y="167.479" fill="#35F706" width="4" height="135.232"/>
	<rect x="78.355" y="145.347" fill="#35F706" width="4" height="26.131"/>
</g>
<line fill="none" stroke="#35F706" stroke-width="2" stroke-linecap="square" stroke-miterlimit="10" x1="32.024" y1="113.43" x2="49.317" y2="113.43"/>
<line fill="none" stroke="#35F706" stroke-width="2" stroke-linecap="square" stroke-miterlimit="10" x1="32.024" y1="140.951" x2="49.317" y2="140.951"/>
<line fill="none" stroke="#35F706" stroke-width="2" stroke-linecap="square" stroke-miterlimit="10" x1="32.024" y1="167.465" x2="49.317" y2="167.465"/>
<line fill="none" stroke="#35F706" stroke-width="2" stroke-linecap="square" stroke-miterlimit="10" x1="32.024" y1="193.98" x2="49.317" y2="193.98"/>
<line fill="none" stroke="#35F706" stroke-width="2" stroke-linecap="square" stroke-miterlimit="10" x1="32.024" y1="221.502" x2="49.317" y2="221.502"/>
<line fill="none" stroke="#35F706" stroke-width="2" stroke-linecap="square" stroke-miterlimit="10" x1="32.024" y1="249.023" x2="49.317" y2="249.023"/>
<line fill="none" stroke="#35F706" stroke-width="2" stroke-linecap="square" stroke-miterlimit="10" x1="32.024" y1="275.874" x2="49.317" y2="275.874"/>
<line fill="none" stroke="#35F706" stroke-width="2" stroke-linecap="square" stroke-miterlimit="10" x1="32.024" y1="126.702" x2="49.317" y2="126.702"/>
<line fill="none" stroke="#35F706" stroke-width="2" stroke-linecap="square" stroke-miterlimit="10" x1="32.024" y1="154.823" x2="49.317" y2="154.823"/>
<line fill="none" stroke="#35F706" stroke-width="2" stroke-linecap="square" stroke-miterlimit="10" x1="32.024" y1="180.779" x2="49.317" y2="180.779"/>
<line fill="none" stroke="#35F706" stroke-width="2" stroke-linecap="square" stroke-miterlimit="10" x1="32.024" y1="207.405" x2="49.317" y2="207.405"/>
<line fill="none" stroke="#35F706" stroke-width="2" stroke-linecap="square" stroke-miterlimit="10" x1="32.024" y1="235.096" x2="49.317" y2="235.096"/>
<line fill="none" stroke="#35F706" stroke-width="2" stroke-linecap="square" stroke-miterlimit="10" x1="32.024" y1="264.016" x2="49.317" y2="264.016"/>
<line fill="none" stroke="#35F706" stroke-width="2" stroke-linecap="square" stroke-miterlimit="10" x1="32.024" y1="288.182" x2="49.317" y2="288.182"/>
<line fill="none" stroke="#35F706" stroke-width="2" stroke-linecap="square" stroke-miterlimit="10" x1="32.024" y1="32.493" x2="49.317" y2="32.493"/>
<line fill="none" stroke="#35F706" stroke-width="2" stroke-linecap="square" stroke-miterlimit="10" x1="32.024" y1="60.015" x2="49.317" y2="60.015"/>
<line fill="none" stroke="#35F706" stroke-width="2" stroke-linecap="square" stroke-miterlimit="10" x1="32.024" y1="86.529" x2="49.317" y2="86.529"/>
<line fill="none" stroke="#35F706" stroke-width="2" stroke-linecap="square" stroke-miterlimit="10" x1="32.024" y1="45.766" x2="49.317" y2="45.766"/>
<line fill="none" stroke="#35F706" stroke-width="2" stroke-linecap="square" stroke-miterlimit="10" x1="32.024" y1="73.887" x2="49.317" y2="73.887"/>
<line fill="none" stroke="#35F706" stroke-width="2" stroke-linecap="square" stroke-miterlimit="10" x1="32.024" y1="99.843" x2="49.317" y2="99.843"/>
<linearGradient id="SVGID_2_" gradientUnits="userSpaceOnUse" x1="142.2341" y1="3.3374" x2="142.2341" y2="144.9126" gradientTransform="matrix(1 0 0 -1 0 303.7109)">
	<stop  offset="0" style="stop-color:#FFFF00"/>
	<stop  offset="1" style="stop-color:#FF0000"/>
</linearGradient>
<rect x="121.927" y="158.799" fill="url(#SVGID_2_)" width="40.611" height="141.575"/>
<g>
	<path fill="#35F706" d="M123.927,192.104h-4V69.68c0-12.299,10.006-22.306,22.306-22.306S164.54,57.38,164.54,69.68v103.825h-4
		V69.68c0-10.094-8.213-18.306-18.307-18.306s-18.306,8.212-18.306,18.306V192.104z"/>
	<rect x="119.927" y="188.104" fill="#35F706" width="4" height="114.271"/>
	<rect x="119.927" y="298.374" fill="#35F706" width="44.611" height="4"/>
	<rect x="160.539" y="188.104" fill="#35F706" width="4" height="114.271"/>
	<rect x="160.539" y="169.505" fill="#35F706" width="4" height="22.599"/>
</g>
<line fill="none" stroke="#35F706" stroke-width="2" stroke-linecap="square" stroke-miterlimit="10" x1="121.927" y1="143.006" x2="136.459" y2="143.006"/>
<line fill="none" stroke="#35F706" stroke-width="2" stroke-linecap="square" stroke-miterlimit="10" x1="121.927" y1="166.131" x2="136.459" y2="166.131"/>
<line fill="none" stroke="#35F706" stroke-width="2" stroke-linecap="square" stroke-miterlimit="10" x1="121.927" y1="188.41" x2="136.459" y2="188.41"/>
<line fill="none" stroke="#35F706" stroke-width="2" stroke-linecap="square" stroke-miterlimit="10" x1="121.927" y1="210.689" x2="136.459" y2="210.689"/>
<line fill="none" stroke="#35F706" stroke-width="2" stroke-linecap="square" stroke-miterlimit="10" x1="121.927" y1="233.816" x2="136.459" y2="233.816"/>
<line fill="none" stroke="#35F706" stroke-width="2" stroke-linecap="square" stroke-miterlimit="10" x1="121.927" y1="256.941" x2="136.459" y2="256.941"/>
<line fill="none" stroke="#35F706" stroke-width="2" stroke-linecap="square" stroke-miterlimit="10" x1="121.927" y1="279.504" x2="136.459" y2="279.504"/>
<line fill="none" stroke="#35F706" stroke-width="2" stroke-linecap="square" stroke-miterlimit="10" x1="121.927" y1="154.158" x2="136.459" y2="154.158"/>
<line fill="none" stroke="#35F706" stroke-width="2" stroke-linecap="square" stroke-miterlimit="10" x1="121.927" y1="177.788" x2="136.459" y2="177.788"/>
<line fill="none" stroke="#35F706" stroke-width="2" stroke-linecap="square" stroke-miterlimit="10" x1="121.927" y1="199.598" x2="136.459" y2="199.598"/>
<line fill="none" stroke="#35F706" stroke-width="2" stroke-linecap="square" stroke-miterlimit="10" x1="121.927" y1="221.973" x2="136.459" y2="221.973"/>
<line fill="none" stroke="#35F706" stroke-width="2" stroke-linecap="square" stroke-miterlimit="10" x1="121.927" y1="245.238" x2="136.459" y2="245.238"/>
<line fill="none" stroke="#35F706" stroke-width="2" stroke-linecap="square" stroke-miterlimit="10" x1="121.927" y1="269.539" x2="136.459" y2="269.539"/>
<line fill="none" stroke="#35F706" stroke-width="2" stroke-linecap="square" stroke-miterlimit="10" x1="121.927" y1="289.846" x2="136.459" y2="289.846"/>
<line fill="none" stroke="#35F706" stroke-width="2" stroke-linecap="square" stroke-miterlimit="10" x1="121.927" y1="74.996" x2="136.459" y2="74.996"/>
<line fill="none" stroke="#35F706" stroke-width="2" stroke-linecap="square" stroke-miterlimit="10" x1="121.927" y1="98.123" x2="136.459" y2="98.123"/>
<line fill="none" stroke="#35F706" stroke-width="2" stroke-linecap="square" stroke-miterlimit="10" x1="121.927" y1="120.401" x2="136.459" y2="120.401"/>
<line fill="none" stroke="#35F706" stroke-width="2" stroke-linecap="square" stroke-miterlimit="10" x1="121.927" y1="86.149" x2="136.459" y2="86.149"/>
<line fill="none" stroke="#35F706" stroke-width="2" stroke-linecap="square" stroke-miterlimit="10" x1="121.927" y1="109.779" x2="136.459" y2="109.779"/>
<line fill="none" stroke="#35F706" stroke-width="2" stroke-linecap="square" stroke-miterlimit="10" x1="121.927" y1="131.589" x2="136.459" y2="131.589"/>
<g>
	<path fill="#35F706" d="M4.191,291.755l0.013-2.211l15.285,0.09c0.672,0.005,1.048,0.253,1.045,0.89
		c-0.004,0.638-0.383,0.883-1.055,0.879L7.092,291.33v0.036l2.951,1.696l0.336,0.002c0.65,0.004,1.258,0.221,1.254,0.893
		c-0.004,0.637-0.614,0.881-1.266,0.877l-0.336-0.002l-2.97,1.662v0.035l12.388,0.072c0.673,0.004,1.049,0.254,1.044,0.891
		c-0.003,0.637-0.383,0.883-1.055,0.879l-15.286-0.092l0.014-2.211l3.708-2.135L4.191,291.755z"/>
	<path fill="#35F706" d="M18.493,280.372l0.016-2.601c0.002-0.459,0.299-0.881,1.055-0.877s1.047,0.431,1.045,0.891l-0.041,6.968
		c-0.002,0.46-0.299,0.883-1.055,0.879c-0.756-0.005-1.047-0.432-1.045-0.891l0.016-2.601l-12.136-0.07l-0.016,2.6
		c-0.003,0.46-0.3,0.883-1.056,0.878c-0.756-0.004-1.047-0.43-1.045-0.891l0.041-6.968c0.002-0.461,0.299-0.883,1.055-0.879
		c0.757,0.006,1.048,0.432,1.046,0.892l-0.016,2.6L18.493,280.372z"/>
	<path fill="#35F706" d="M5.412,265.825c-0.672-0.004-1.048-0.254-1.044-0.892c0.005-0.637,0.384-0.882,1.056-0.877l15.285,0.088
		l-0.015,2.336l-12.625,4.541H8.05v0.035l11.548,0.067c0.672,0.004,1.048,0.253,1.045,0.89c-0.004,0.637-0.383,0.883-1.055,0.879
		l-15.285-0.09l0.014-2.334l12.771-4.541v0.019v-0.035L5.412,265.825z"/>
	<path fill="#35F706" d="M18.641,254.896l0.015-2.601c0.002-0.46,0.3-0.882,1.056-0.878s1.047,0.43,1.045,0.891l-0.041,6.967
		c-0.003,0.461-0.299,0.884-1.056,0.88c-0.756-0.005-1.047-0.431-1.044-0.892l0.016-2.6l-12.137-0.07l-0.015,2.6
		c-0.003,0.459-0.299,0.884-1.055,0.879c-0.756-0.006-1.047-0.432-1.044-0.891l0.041-6.969c0.002-0.46,0.299-0.883,1.055-0.878
		s1.047,0.431,1.045,0.89l-0.015,2.601L18.641,254.896z"/>
	<path fill="#35F706" d="M5.561,240.35c-0.672-0.005-1.048-0.255-1.045-0.892c0.004-0.638,0.383-0.882,1.055-0.878l15.285,0.089
		l-0.014,2.335l-12.625,4.542H8.197v0.035l11.548,0.067c0.673,0.004,1.049,0.252,1.046,0.89c-0.005,0.637-0.384,0.883-1.056,0.879
		l-15.285-0.09l0.015-2.334l12.771-4.541v0.018v-0.034L5.561,240.35z"/>
	<path fill="#35F706" d="M15.556,229.4c-0.002,0.461-0.299,0.884-1.055,0.879c-0.757-0.006-1.048-0.432-1.044-0.891l0.021-3.483
		l4.136,0.024c2.037,0.012,3.29,1.168,3.28,2.848l-0.018,3.041c-0.005,0.814-0.177,1.414-0.853,2.029
		c-0.76,0.703-1.538,0.822-2.587,0.816l-5.249-0.031c-1.344-0.008-2.035-0.259-3.06-0.938L5.97,231.59
		c-1.066-0.713-1.42-1.334-1.413-2.484l0.014-2.369c0.003-0.459,0.299-0.881,1.056-0.877c0.756,0.005,1.047,0.431,1.044,0.89
		l-0.013,2.123c-0.006,0.974-0.025,0.901,0.853,1.49l2.907,1.944c0.814,0.553,1.696,0.559,2.726,0.563l4.115,0.024
		c1.155,0.006,1.513-0.203,1.519-1.213l0.018-2.812c0.003-0.638-0.162-1.168-1.085-1.174l-2.143-0.013L15.556,229.4z"/>
	<path fill="#35F706" d="M18.953,201.345c0.004-0.46,0.3-0.883,1.056-0.878c0.756,0.006,1.047,0.432,1.044,0.891l-0.046,7.852
		l-16.334-0.096l0.046-7.853c0.003-0.46,0.299-0.882,1.055-0.878s1.047,0.43,1.044,0.891l-0.035,6.082l5.019,0.029l0.015-2.6
		c0.002-0.459,0.299-0.883,1.055-0.877c0.757,0.004,1.048,0.43,1.046,0.89l-0.016,2.601l5.019,0.028L18.953,201.345z"/>
	<path fill="#35F706" d="M4.748,196.376l0.045-7.853c0.003-0.461,0.299-0.883,1.055-0.879s1.047,0.431,1.044,0.892l-0.035,6.083
		l3.233,0.02l0.024-4.351c0.002-0.46,0.3-0.883,1.056-0.878s1.047,0.431,1.045,0.89l-0.025,4.351l7.854,0.047
		c0.672,0.004,1.048,0.254,1.044,0.891c-0.003,0.637-0.384,0.883-1.056,0.878L4.748,196.376z"/>
	<path fill="#35F706" d="M4.821,183.639l0.045-7.853c0.003-0.461,0.3-0.884,1.056-0.879s1.047,0.431,1.044,0.891l-0.035,6.083
		l3.233,0.02l0.024-4.351c0.002-0.459,0.299-0.882,1.055-0.877c0.757,0.004,1.048,0.431,1.046,0.89l-0.025,4.351l7.853,0.046
		c0.673,0.004,1.049,0.254,1.044,0.891c-0.003,0.637-0.383,0.883-1.055,0.879L4.821,183.639z"/>
	<path fill="#35F706" d="M19.161,165.729l0.017-2.6c0.002-0.459,0.299-0.882,1.055-0.877c0.756,0.004,1.047,0.43,1.045,0.891
		l-0.041,6.967c-0.002,0.461-0.299,0.884-1.055,0.88c-0.756-0.005-1.047-0.433-1.045-0.892l0.015-2.6l-12.136-0.071l-0.015,2.601
		c-0.002,0.459-0.3,0.883-1.056,0.878s-1.047-0.431-1.045-0.892l0.041-6.967c0.002-0.461,0.299-0.883,1.056-0.879
		c0.756,0.005,1.047,0.432,1.045,0.891l-0.017,2.601L19.161,165.729z"/>
	<path fill="#35F706" d="M21.333,153.499c-0.009,1.326-0.643,2.084-2.011,2.642l-3.915,1.604c-0.716,0.296-1.389,0.469-2.208,0.465
		c-0.924-0.006-1.489-0.149-2.327-0.51l-3.875-1.649c-1.445-0.609-2.009-1.374-2-2.734l0.018-3.006
		c0.002-0.389,0.257-0.883,1.055-0.878c0.756,0.004,1.047,0.483,1.045,0.891l-0.018,2.952c-0.004,0.761,0.079,0.885,0.875,1.227
		l3.644,1.561c0.566,0.232,0.943,0.375,1.595,0.379c0.588,0.004,0.945-0.152,1.45-0.361l3.642-1.482
		c0.863-0.349,0.927-0.523,0.932-1.32l0.018-2.882c0.002-0.389,0.257-0.883,1.055-0.878c0.756,0.004,1.047,0.483,1.045,0.89
		L21.333,153.499z"/>
	<path fill="#35F706" d="M19.31,140.254l0.015-2.6c0.002-0.46,0.3-0.882,1.056-0.878s1.047,0.43,1.045,0.89l-0.041,6.968
		c-0.003,0.46-0.299,0.883-1.056,0.878c-0.756-0.005-1.047-0.431-1.044-0.891l0.016-2.6L7.165,141.95l-0.016,2.6
		c-0.003,0.46-0.299,0.883-1.055,0.878c-0.756-0.005-1.047-0.431-1.044-0.891l0.041-6.968c0.002-0.46,0.299-0.882,1.055-0.878
		s1.047,0.43,1.045,0.89l-0.015,2.6L19.31,140.254z"/>
	<path fill="#35F706" d="M19.399,124.916c0.002-0.46,0.299-0.882,1.055-0.878c0.757,0.004,1.048,0.43,1.046,0.89l-0.047,7.853
		l-16.335-0.095l0.047-7.852c0.002-0.46,0.299-0.882,1.055-0.878s1.047,0.43,1.045,0.89l-0.036,6.083l5.019,0.029l0.015-2.599
		c0.003-0.459,0.299-0.882,1.055-0.878s1.047,0.431,1.044,0.89l-0.015,2.599l5.018,0.029L19.399,124.916z"/>
	<path fill="#35F706" d="M6.304,112.968c-0.672-0.004-1.048-0.253-1.045-0.89c0.004-0.637,0.383-0.882,1.055-0.878l15.285,0.089
		l-0.014,2.334l-12.625,4.542H8.94v0.035l11.548,0.067c0.672,0.004,1.048,0.253,1.045,0.89c-0.004,0.637-0.383,0.882-1.055,0.878
		l-15.286-0.088l0.015-2.334l12.771-4.541v0.018v-0.036L6.304,112.968z"/>
	<path fill="#35F706" d="M21.63,102.547c-0.008,1.327-0.643,2.083-2.011,2.641l-3.915,1.604c-0.716,0.296-1.389,0.469-2.207,0.465
		c-0.925-0.005-1.49-0.15-2.328-0.509l-3.875-1.65c-1.445-0.609-2.009-1.373-2-2.735l0.018-3.006
		c0.002-0.389,0.257-0.883,1.055-0.878c0.757,0.004,1.048,0.483,1.044,0.89l-0.017,2.954c-0.004,0.76,0.079,0.885,0.875,1.226
		l3.646,1.56c0.564,0.233,0.941,0.376,1.593,0.38c0.588,0.003,0.945-0.154,1.451-0.363l3.641-1.482
		c0.863-0.348,0.927-0.525,0.932-1.321l0.018-2.883c0.002-0.389,0.257-0.883,1.055-0.878c0.756,0.004,1.047,0.483,1.044,0.89
		L21.63,102.547z"/>
	<path fill="#35F706" d="M20.656,89.308c0.672,0.004,1.048,0.253,1.044,0.89c-0.003,0.637-0.383,0.882-1.055,0.878l-6.719-0.039
		l-5.395,3.452L6.39,94.477c-0.672-0.004-1.048-0.254-1.044-0.891c0.003-0.637,0.383-0.882,1.055-0.878l1.428,0.008l4.025-2.576
		l-3.995-2.623l-1.428-0.008c-0.672-0.004-1.049-0.254-1.045-0.891c0.004-0.637,0.383-0.882,1.055-0.878l2.143,0.012l5.354,3.516
		L20.656,89.308z"/>
</g>
<path fill="#35F706" d="M99.175,297.253l0.756,0.005c0.672,0.004,1.048,0.254,1.044,0.891c-0.003,0.638-0.383,0.883-1.055,0.879
	l-2.855-0.018l0.051-8.736l2.855,0.018c0.672,0.004,1.049,0.254,1.045,0.891s-0.383,0.883-1.055,0.879l-0.757-0.006l-0.01,1.717
	l13.187,0.076c0.672,0.004,1.049,0.254,1.045,0.891c-0.004,0.638-0.384,0.883-1.057,0.879l-13.186-0.077L99.175,297.253z"/>
<path fill="#35F706" d="M111.404,281.104l0.016-2.601c0.003-0.461,0.299-0.883,1.055-0.879c0.756,0.005,1.048,0.431,1.045,0.892
	l-0.041,6.967c-0.002,0.461-0.299,0.884-1.055,0.879c-0.756-0.004-1.047-0.43-1.045-0.892l0.016-2.6L99.26,282.8l-0.017,2.601
	c-0.003,0.459-0.299,0.883-1.055,0.879c-0.756-0.006-1.048-0.432-1.045-0.891l0.041-6.97c0.002-0.459,0.299-0.882,1.055-0.877
	c0.756,0.004,1.047,0.43,1.045,0.89l-0.016,2.601L111.404,281.104z"/>
<path fill="#35F706" d="M97.252,267.009l0.012-2.211l15.285,0.089c0.672,0.004,1.049,0.254,1.045,0.891s-0.383,0.883-1.055,0.879
	l-12.389-0.072v0.035l2.95,1.697l0.336,0.002c0.651,0.004,1.259,0.22,1.255,0.892c-0.003,0.638-0.614,0.881-1.265,0.877
	l-0.336-0.002l-2.972,1.663v0.035l12.389,0.072c0.672,0.004,1.048,0.254,1.045,0.891c-0.004,0.637-0.384,0.882-1.057,0.878
	l-15.284-0.089l0.014-2.211l3.707-2.137L97.252,267.009z"/>
<path fill="#35F706" d="M111.568,253.025c0.003-0.459,0.299-0.883,1.056-0.877c0.756,0.004,1.048,0.431,1.045,0.89l-0.045,7.853
	l-16.337-0.095l0.048-7.853c0.002-0.461,0.299-0.883,1.055-0.879s1.047,0.431,1.045,0.892l-0.036,6.083l5.02,0.029l0.015-2.601
	c0.003-0.46,0.3-0.882,1.056-0.878s1.047,0.432,1.044,0.891l-0.015,2.601l5.018,0.028L111.568,253.025z"/>
<path fill="#35F706" d="M99.546,233.563l0.756,0.006c0.672,0.004,1.048,0.254,1.045,0.891c-0.004,0.637-0.384,0.881-1.056,0.877
	l-2.855-0.016l0.052-8.736l2.855,0.018c0.672,0.004,1.048,0.254,1.044,0.89c-0.004,0.637-0.383,0.883-1.055,0.879l-0.757-0.005
	l-0.01,1.716l13.187,0.076c0.672,0.004,1.049,0.254,1.045,0.891c-0.004,0.638-0.384,0.884-1.056,0.879l-13.186-0.077L99.546,233.563
	z"/>
<path fill="#35F706" d="M103.459,214.339c0.819-0.33,1.43-0.45,2.333-0.444c1.008,0.006,1.636,0.237,2.494,0.598l3.854,1.65
	c1.006,0.43,1.736,1.141,1.729,2.166c-0.006,1.025-0.744,1.729-1.756,2.147l-3.873,1.604c-0.861,0.35-1.493,0.575-2.502,0.569
	c-0.901-0.006-1.51-0.133-2.327-0.474l-4.168-1.793c-0.983-0.432-1.715-1.159-1.709-2.15c0.006-0.99,0.745-1.711,1.733-2.13
	L103.459,214.339z M100.269,217.628c-0.338,0.14-0.632,0.228-0.634,0.599c-0.003,0.371,0.291,0.461,0.626,0.604l3.791,1.612
	c0.606,0.271,1.006,0.412,1.699,0.416c0.545,0.005,0.924-0.1,1.387-0.291l3.999-1.676c0.295-0.121,0.632-0.244,0.634-0.598
	s-0.334-0.479-0.627-0.604l-3.979-1.723c-0.462-0.197-0.839-0.305-1.386-0.309c-0.691-0.004-1.092,0.136-1.703,0.396
	L100.269,217.628z"/>
<path fill="#35F706" d="M98.068,189.889l0.014-2.211l15.284,0.09c0.673,0.004,1.049,0.252,1.045,0.89
	c-0.004,0.637-0.384,0.882-1.056,0.878l-12.387-0.072v0.036l2.95,1.696l0.336,0.003c0.65,0.004,1.259,0.22,1.255,0.892
	c-0.004,0.637-0.614,0.88-1.267,0.876l-0.336-0.002l-2.97,1.663l-0.001,0.035l12.389,0.072c0.673,0.004,1.049,0.252,1.045,0.89
	c-0.004,0.637-0.384,0.882-1.056,0.878l-15.285-0.089l0.014-2.21l3.708-2.137L98.068,189.889z"/>
<path fill="#35F706" d="M112.37,178.507l0.016-2.6c0.003-0.46,0.299-0.882,1.055-0.878s1.048,0.43,1.045,0.89l-0.04,6.968
	c-0.004,0.461-0.3,0.883-1.056,0.879c-0.756-0.006-1.048-0.432-1.044-0.892l0.015-2.601l-12.136-0.07l-0.016,2.6
	c-0.002,0.461-0.3,0.883-1.056,0.879c-0.756-0.006-1.047-0.432-1.045-0.892l0.041-6.968c0.002-0.461,0.299-0.883,1.055-0.879
	c0.757,0.005,1.048,0.431,1.046,0.891l-0.017,2.6L112.37,178.507z"/>
<path fill="#35F706" d="M99.291,163.959c-0.673-0.004-1.05-0.253-1.046-0.891c0.005-0.637,0.384-0.881,1.056-0.877l15.285,0.089
	l-0.015,2.334l-12.625,4.542h-0.021l-0.001,0.035l11.549,0.066c0.672,0.004,1.048,0.253,1.045,0.891
	c-0.004,0.637-0.384,0.882-1.056,0.877l-15.285-0.088l0.014-2.334l12.771-4.541v0.018v-0.036L99.291,163.959z"/>
<path fill="#35F706" d="M112.533,150.432c0.003-0.461,0.301-0.883,1.057-0.879s1.047,0.43,1.044,0.891l-0.046,7.852L98.253,158.2
	l0.046-7.853c0.003-0.459,0.299-0.882,1.055-0.878c0.756,0.005,1.048,0.431,1.045,0.89l-0.035,6.084l5.019,0.029l0.016-2.601
	c0.002-0.459,0.299-0.882,1.055-0.878c0.757,0.004,1.048,0.431,1.046,0.89l-0.017,2.601l5.019,0.029L112.533,150.432z"/>
</svg>
