<?xml version="1.0" encoding="utf-8"?>
<!-- Generator: Adobe Illustrator 16.0.0, SVG Export Plug-In . SVG Version: 6.00 Build 0)  -->
<!DOCTYPE svg PUBLIC "-//W3C//DTD SVG 1.1//EN" "http://www.w3.org/Graphics/SVG/1.1/DTD/svg11.dtd">
<svg version="1.1" id="Layer_1" xmlns="http://www.w3.org/2000/svg" xmlns:xlink="http://www.w3.org/1999/xlink" x="0px" y="0px"
	 width="17.568px" height="212.556px" viewBox="0 0 17.568 212.556" enable-background="new 0 0 17.568 212.556"
	 xml:space="preserve">
<g>
	<path fill="#35F706" d="M2.109,210.783l0.756,0.005c0.672,0.004,1.049,0.254,1.045,0.891s-0.383,0.882-1.055,0.878L0,212.54
		l0.051-8.736l2.855,0.017c0.672,0.004,1.048,0.254,1.045,0.891c-0.004,0.637-0.384,0.882-1.056,0.878l-0.756-0.005l-0.01,1.716
		l13.186,0.077c0.672,0.004,1.048,0.254,1.044,0.891s-0.383,0.882-1.055,0.878l-13.186-0.077L2.109,210.783z"/>
	<path fill="#35F706" d="M14.34,194.632l0.016-2.6c0.002-0.461,0.299-0.883,1.055-0.879c0.756,0.005,1.047,0.431,1.045,0.891
		l-0.041,6.968c-0.003,0.46-0.299,0.883-1.055,0.878c-0.756-0.004-1.048-0.43-1.045-0.891l0.016-2.6l-12.137-0.07l-0.016,2.6
		c-0.002,0.46-0.299,0.883-1.055,0.879c-0.756-0.005-1.047-0.432-1.045-0.891l0.041-6.969c0.003-0.459,0.299-0.882,1.055-0.877
		c0.756,0.004,1.048,0.43,1.045,0.89l-0.015,2.6L14.34,194.632z"/>
	<path fill="#35F706" d="M0.186,180.539l0.014-2.211l15.285,0.089c0.672,0.004,1.048,0.253,1.045,0.89
		c-0.004,0.637-0.384,0.883-1.056,0.879l-12.388-0.072v0.035l2.951,1.697l0.336,0.002c0.65,0.004,1.258,0.22,1.254,0.892
		c-0.004,0.637-0.613,0.881-1.265,0.877l-0.336-0.002l-2.97,1.663l-0.001,0.035l12.388,0.072c0.672,0.004,1.049,0.254,1.045,0.891
		s-0.383,0.882-1.055,0.878l-15.285-0.089l0.012-2.211l3.709-2.137L0.186,180.539z"/>
	<path fill="#35F706" d="M14.504,166.556c0.002-0.46,0.299-0.883,1.055-0.878s1.047,0.431,1.045,0.89l-0.047,7.853l-16.334-0.095
		l0.045-7.853c0.003-0.46,0.299-0.882,1.055-0.878s1.048,0.43,1.045,0.891l-0.035,6.083l5.018,0.029l0.016-2.6
		c0.003-0.46,0.299-0.882,1.055-0.878s1.048,0.431,1.045,0.891l-0.016,2.6l5.019,0.029L14.504,166.556z"/>
	<path fill="#35F706" d="M2.48,147.092l0.756,0.005c0.672,0.004,1.049,0.254,1.045,0.891s-0.383,0.881-1.055,0.877l-2.855-0.016
		l0.051-8.736l2.855,0.017c0.672,0.004,1.049,0.254,1.045,0.89c-0.004,0.637-0.384,0.883-1.056,0.879l-0.756-0.005l-0.01,1.716
		l13.186,0.076c0.672,0.004,1.048,0.254,1.044,0.891c-0.003,0.637-0.383,0.883-1.055,0.879L2.49,145.376L2.48,147.092z"/>
	<path fill="#35F706" d="M6.393,127.869c0.821-0.33,1.432-0.451,2.334-0.445c1.008,0.006,1.637,0.238,2.495,0.598l3.854,1.65
		c1.005,0.43,1.736,1.141,1.73,2.166c-0.007,1.026-0.745,1.73-1.755,2.148l-3.873,1.604c-0.863,0.35-1.494,0.576-2.502,0.57
		c-0.903-0.006-1.512-0.133-2.328-0.474l-4.168-1.793c-0.984-0.431-1.715-1.159-1.709-2.15c0.006-0.99,0.744-1.711,1.734-2.13
		L6.393,127.869z M3.203,131.158c-0.336,0.14-0.631,0.227-0.633,0.598s0.291,0.461,0.626,0.605l3.791,1.613
		c0.607,0.27,1.006,0.412,1.698,0.416c0.547,0.004,0.925-0.1,1.388-0.292l3.999-1.675c0.295-0.122,0.631-0.244,0.634-0.598
		c0.002-0.354-0.333-0.479-0.626-0.604L10.1,129.5c-0.461-0.197-0.838-0.305-1.383-0.309c-0.693-0.004-1.094,0.136-1.703,0.396
		L3.203,131.158z"/>
	<path fill="#35F706" d="M1.705,103.656c-0.672-0.004-1.049-0.254-1.045-0.891s0.383-0.882,1.055-0.878L17,101.976l-0.014,2.335
		l-12.624,4.542H4.342v0.035l11.547,0.067c0.672,0.004,1.049,0.253,1.045,0.89s-0.383,0.883-1.055,0.879l-15.285-0.09l0.014-2.334
		l12.771-4.541v0.018v-0.035L1.705,103.656z"/>
	<path fill="#35F706" d="M14.949,90.128c0.002-0.461,0.299-0.883,1.055-0.879c0.756,0.005,1.047,0.431,1.045,0.891l-0.046,7.852
		L0.668,97.896l0.045-7.852c0.004-0.459,0.3-0.882,1.056-0.877c0.756,0.004,1.048,0.43,1.044,0.89L2.777,96.14l5.019,0.029
		l0.015-2.6c0.003-0.459,0.299-0.883,1.055-0.878s1.048,0.431,1.045,0.89l-0.015,2.6l5.019,0.029L14.949,90.128z"/>
	<path fill="#35F706" d="M8.93,81.847l-6.443,3.109c-0.232,0.123-0.463,0.21-0.758,0.208c-0.545-0.003-0.984-0.431-0.981-0.872
		c0.003-0.584,0.529-0.775,1.034-1.02l5.033-2.447l-5.004-2.504c-0.502-0.251-1.025-0.449-1.022-1.033
		c0.003-0.441,0.446-0.863,0.991-0.86c0.295,0.002,0.525,0.091,0.756,0.217l6.406,3.186l6.443-3.11
		c0.23-0.123,0.463-0.21,0.756-0.208c0.547,0.003,0.984,0.43,0.982,0.872c-0.004,0.584-0.529,0.775-1.035,1.02l-5.032,2.447
		l5.003,2.505c0.503,0.251,1.027,0.448,1.023,1.032c-0.002,0.441-0.445,0.863-0.992,0.86c-0.293-0.002-0.523-0.092-0.754-0.216
		L8.93,81.847z"/>
	<path fill="#35F706" d="M2.926,70.664l0.756,0.005c0.672,0.004,1.049,0.254,1.045,0.891s-0.383,0.882-1.055,0.878L0.816,72.42
		l0.051-8.736l2.855,0.017c0.672,0.004,1.049,0.254,1.045,0.891s-0.383,0.882-1.055,0.878l-0.756-0.004l-0.01,1.716l13.186,0.076
		c0.672,0.004,1.048,0.254,1.044,0.891s-0.384,0.882-1.056,0.878L2.936,68.949L2.926,70.664z"/>
	<path fill="#35F706" d="M1.003,40.419l0.013-2.211l15.285,0.089c0.672,0.004,1.049,0.253,1.045,0.89s-0.383,0.882-1.055,0.878
		L3.902,39.994v0.036l2.951,1.697l0.336,0.002c0.65,0.004,1.258,0.22,1.254,0.892C8.44,43.256,7.83,43.5,7.18,43.496l-0.336-0.002
		l-2.971,1.663v0.035l12.387,0.072c0.672,0.004,1.049,0.253,1.045,0.89s-0.383,0.882-1.055,0.878L0.965,46.944l0.013-2.21
		l3.708-2.136L1.003,40.419z"/>
	<path fill="#35F706" d="M15.305,29.037l0.016-2.6c0.002-0.46,0.299-0.882,1.055-0.878s1.047,0.43,1.045,0.89l-0.041,6.968
		c-0.002,0.46-0.299,0.883-1.055,0.878s-1.047-0.431-1.045-0.891l0.016-2.6L3.159,30.734l-0.015,2.6
		c-0.004,0.46-0.3,0.883-1.056,0.878s-1.048-0.431-1.044-0.891l0.04-6.968c0.003-0.46,0.299-0.882,1.055-0.878
		s1.048,0.43,1.045,0.89l-0.015,2.6L15.305,29.037z"/>
	<path fill="#35F706" d="M2.225,14.489c-0.672-0.004-1.048-0.253-1.045-0.89c0.004-0.637,0.384-0.882,1.056-0.878l15.285,0.089
		l-0.014,2.334L4.883,19.686H4.861v0.035l11.547,0.067c0.672,0.004,1.049,0.253,1.045,0.89s-0.383,0.882-1.055,0.878L1.113,21.468
		l0.014-2.334l12.771-4.541v0.018v-0.036L2.225,14.489z"/>
	<path fill="#35F706" d="M15.469,0.961c0.003-0.46,0.299-0.882,1.055-0.878s1.048,0.43,1.045,0.89l-0.046,7.852L1.188,8.73
		l0.046-7.852C1.236,0.418,1.533-0.004,2.289,0s1.047,0.43,1.044,0.89L3.297,6.974l5.019,0.029l0.015-2.6
		c0.004-0.459,0.3-0.882,1.056-0.878s1.048,0.431,1.044,0.89l-0.015,2.6l5.019,0.029L15.469,0.961z"/>
</g>
</svg>
